<svg width="26" height="26" viewBox="0 0 26 26" fill="none" xmlns="http://www.w3.org/2000/svg">
<path fill-rule="evenodd" clip-rule="evenodd" d="M13.0001 4.33335C12.1821 4.33342 11.3855 4.59382 10.7254 5.07684C10.0653 5.55986 9.57613 6.24043 9.32864 7.02001L8.46198 9.75001H17.5381L16.6715 7.02001C16.424 6.24043 15.9348 5.55986 15.2747 5.07684C14.6147 4.59382 13.818 4.33342 13.0001 4.33335ZM19.811 9.75001L18.7363 6.3646C18.3499 5.14636 17.5856 4.08279 16.5543 3.32795C15.523 2.57312 14.2781 2.16623 13.0001 2.16623C11.722 2.16623 10.4771 2.57312 9.44581 3.32795C8.41447 4.08279 7.65023 5.14636 7.26381 6.3646L6.18914 9.75001H3.62706C3.28879 9.75002 2.95522 9.82924 2.65306 9.98131C2.35091 10.1334 2.08855 10.3541 1.88701 10.6258C1.68546 10.8974 1.55033 11.2125 1.49243 11.5458C1.43452 11.8791 1.45546 12.2213 1.55356 12.545L2.77123 16.5642L4.27489 21.5259C4.47713 22.1933 4.8887 22.7779 5.44878 23.1935C6.00886 23.609 6.68775 23.8333 7.38514 23.8333H18.615C19.3122 23.8331 19.9908 23.6086 20.5507 23.1931C21.1105 22.7776 21.522 22.1931 21.7241 21.5259L23.2289 16.5642L24.4466 12.545C24.5447 12.2213 24.5656 11.8791 24.5077 11.5458C24.4498 11.2125 24.3147 10.8974 24.1131 10.6258C23.9116 10.3541 23.6492 10.1334 23.3471 9.98131C23.0449 9.82924 22.7113 9.75002 22.3731 9.75001H19.811ZM6.98106 11.9167H3.62706L4.61181 15.1667H8.70681L8.26264 11.9167H6.98106ZM10.4499 11.9167L10.893 15.1667H15.1071L15.5513 11.9167H10.4488H10.4499ZM17.7375 11.9167L17.2933 15.1667H21.3883L22.3731 11.9167H17.7375ZM20.7318 17.3333H16.9976L16.4071 21.6667H18.6139C18.8464 21.6667 19.0727 21.5919 19.2593 21.4534C19.446 21.3149 19.5832 21.12 19.6506 20.8975L20.7307 17.3333H20.7318ZM14.221 21.6667L14.8114 17.3333H11.1876L11.7791 21.6667H14.221ZM9.59189 21.6667L9.00148 17.3333H5.26831L6.34839 20.8975C6.41581 21.12 6.553 21.3149 6.73969 21.4534C6.92638 21.5919 7.15268 21.6667 7.38514 21.6667H9.59189Z" fill="black"/>
</svg>
